<?xml version="1.0" standalone="no"?>
<!DOCTYPE svg PUBLIC "-//W3C//DTD SVG 20010904//EN"
 "http://www.w3.org/TR/2001/REC-SVG-20010904/DTD/svg10.dtd">
<svg version="1.0" xmlns="http://www.w3.org/2000/svg"
 width="700.000000pt" height="700.000000pt" viewBox="0 0 700.000000 700.000000"
 preserveAspectRatio="xMidYMid meet">
<metadata>
Created by potrace 1.11, written by Peter Selinger 2001-2013
</metadata>
<g transform="translate(0.000000,700.000000) scale(0.100000,-0.100000)"
fill="#000000" stroke="none">
<path d="M1879 5265 c-243 -39 -443 -118 -648 -255 -103 -69 -289 -246 -367
-350 -433 -574 -495 -1417 -154 -2105 220 -444 559 -709 1030 -806 125 -26
416 -36 560 -20 295 34 556 131 763 284 95 69 245 213 323 308 l54 66 0 342 0
341 135 0 135 0 0 75 0 75 -865 0 -865 0 0 -75 0 -75 223 -2 222 -3 0 -390
c-1 -415 -2 -426 -55 -566 -54 -146 -212 -242 -360 -218 -165 26 -312 184
-365 393 -52 208 -65 438 -65 1191 0 650 6 807 36 985 49 287 186 501 387 600
82 41 93 44 190 48 166 7 313 -39 471 -148 87 -60 206 -181 265 -269 90 -133
163 -321 192 -496 l13 -75 78 0 78 0 0 540 0 540 -73 0 -72 0 -95 -95 c-52
-52 -98 -95 -102 -95 -4 0 -46 24 -95 54 -165 100 -303 160 -443 192 -94 22
-420 27 -531 9z"/>
<path d="M3740 5166 c0 -44 -37 -831 -45 -959 l-7 -98 77 3 78 3 27 136 c81
405 216 652 408 746 73 37 80 38 199 42 l123 3 0 -1541 0 -1541 -217 -2 -218
-3 0 -75 0 -75 935 0 935 0 0 75 0 75 -217 3 -218 2 0 1541 0 1541 123 -3
c119 -4 126 -5 199 -42 192 -95 329 -345 408 -747 l26 -135 78 -3 77 -3 -6 93
c-7 113 -45 920 -45 966 l0 32 -1360 0 -1360 0 0 -34z"/>
</g>
</svg>
