<svg xmlns="http://www.w3.org/2000/svg" width="456.22" height="200.68" viewBox="0 0 456.22 200.68"><defs><style>.cls-2{fill:#e0af25}</style></defs><g id="Layer_4" data-name="Layer 4"><path d="M78.29 156.88l-10.41 12.81c-30.28-8.51-48.62-17.81-48.62-24 0-5.1 12.61-7.33 34.18-8.11 5.16 6.66 12.99 13.6 24.85 19.3zm331-16.55c-33.5 46.87-263.28 37.37-313.77 23A111.35 111.35 0 0183 159l-9.86 12.13c38.69 10.28 94.72 19 156.35 19 114.86 0 204.9-27.33 204.9-41.36.02-4.42-9.05-7-25.11-8.44z" fill="#432e8d"/><path class="cls-2" d="M123.23 105.76l-5.06 6.24-2 2.4-1.83 2.25-9.34 11.56-4.64 5.71-5.74 7.08-3.91 4.81-7 8.68-2.95 3.51-10.1 12.43 2.5.67 2.8.73L85.58 160l3-3.71 8.29-10.21 3.91-4.81 9.6-11.81 9.91-12.2 3.8-4.68 6.06-7.45a30 30 0 01-3.57-1.53 9.83 9.83 0 01-3.35 2.16zM202.46 12l-1.84-1.49-15.31 18.85a35.51 35.51 0 018.18-2.15l11-13.54zm-87.41 99.64l-1.74 2.14-2 2.5-9.1 11.2-4.32 5.32-6.5 8-3.91 4.81-6.33 7.79c-37.64-16.34-38.19-44.77-38.19-44.77a2.71 2.71 0 01-2.73-1.71c-.85-1.75-1.4-11.89-1.71-20.1 0-.72-.05-1.42-.08-2.1L42 88l5.9 5.37c.3.25 14.75 12.18 67.15 18.27zm311.88-43.18l10-1.88-.17-29.44s-22.13-2.73-25.19 23.49c-.42 3.59-.85 7.67-1.28 12h-7.79v3.62h7.5c-.47 5-.93 10.27-1.38 15.56v.47c-.08.9-.15 1.8-.23 2.7-19.76 29.79-72 35.14-94.64 36-1.9.08-3.59.12-5 .14a13.16 13.16 0 002.25-3.02l2.23-.1c21-.89 69.2-5.77 89.92-31-13.57 10.07-39.18 19-87.53 16.74 0 0-4.25-4.24-10.15-2.67a4.77 4.77 0 00-.51.13l-.27.09c-3.11 1.06-11.37 3.87-121 3.87-23.53 0-43.19-1-59.58-2.55l-3.8 4.68a629.67 629.67 0 0063.38 2.87c94.12 0 114.21-2.1 120.36-3.49l.82 11.54a8.14 8.14 0 01-1.79 3V131a2.11 2.11 0 01-.45.1c-17 2.22-119.72 14.58-192.24-1.6l-9.6 11.81-3.91 4.81-8.28 10.19q3.06 1.06 6.41 2c48 13.67 266 21.1 310-19 0 0 11.37.6 17.5-28.68.32-1.55.61-3 .85-4.51 3.27.35 8.64 1.53 8.64 1.53V98h-7.55c.15-1.54.26-3 .33-4.43C428 94 432 94.92 432 94.92v-9.7h-7.1c-.3-11.52 2.03-16.76 2.03-16.76zm-6 38c-.06-.17.08-.27.37-.31-.17.35-.3.5-.4.26zm0-12.76c-.06-.17.08-.27.37-.32-.17.36-.3.51-.4.27z"/><path class="cls-2" d="M89.19 99.42V98.1h5.64V62.36c-6.56 2.42-10.36 6.28-11.79 12H81.6V61h44.54v13.39h-1.44c-.92-5.3-5.58-10.07-11.68-12V98.1h5.64v1.32zm65-21.17a11.29 11.29 0 015.64 10 10.19 10.19 0 01-4.49 8.52c-3.34 2.19-8.41 3.45-13.76 3.45s-10-1.26-13.47-3.62a9.69 9.69 0 01-4.54-8.46 11.3 11.3 0 015.81-9.9 27.39 27.39 0 0124.81.06zM146.05 80c0-2.76-1-3.68-4.26-3.68s-4.37 1-4.37 3.86V95.4c0 2.64 1 3.56 4.14 3.56s4.49-1 4.49-3.56zm39.6 16.4a18.38 18.38 0 01-10.88 3.8c-3 0-5.58-.8-7-2.13a5.71 5.71 0 01-1.61-4.49V76.81h-4.66v-1.15h11.2a30 30 0 006.5-.75v18.3a4.41 4.41 0 00.29 2.24 2.2 2.2 0 002 1 7.85 7.85 0 004.2-1.61v-18h-4.89v-1.18h11.57a29.56 29.56 0 006.38-.75v23.36h4.21v1.15h-17.31zm18.13 3v-1.13H208V76.81h-4.2v-1.15h10.07a27.29 27.29 0 007.19-.75v6.5c3.05-4 6.05-5.93 9.21-5.93 3.45 0 5.64 2 5.64 5a5.72 5.72 0 01-6 5.53c-3.23 0-5.53-2-5.53-4.66a3.36 3.36 0 01.23-1.15 7.76 7.76 0 00-3.61 4.38v13.69h5.53v1.15zm59.51-14.21a8.24 8.24 0 00-3.57-5.87 17.37 17.37 0 00-8.72-2.57c-1.78 0-2.7.57-2.7 1.67a1.41 1.41 0 00.63 1.15c.46.34.46.34 4.83 2.36a68.29 68.29 0 018.24 3.74c2.77 1.55 4 3.51 4 6.33 0 5-4.89 8.23-12.43 8.23a22.91 22.91 0 01-11.22-2.71l-4.15 2.88V89.81h1.39a7.35 7.35 0 002.82 5.53c2.36 2 6.5 3.28 10.41 3.28 2.19 0 3.23-.63 3.23-2 0-1.09-.7-1.61-2.82-2.24-10.54-3-14.79-6-14.79-10.36 0-5 5.17-8.75 12.14-8.75a19.21 19.21 0 019.21 2.42l4.83-2.59v10.11zm-89.13-37.12v17.78l-4.54-4.49c-4.09 2.59-8.75 3.8-15 3.8-14 0-23.83-8.17-23.83-20a20.47 20.47 0 018.75-16.92c3.57-2.36 9.15-3.8 14.79-3.8a21.05 21.05 0 0112.26 3.22l5.64-3.22v15h-1.21a11.25 11.25 0 00-3.69-8.23 15.52 15.52 0 00-11.1-5c-3.92 0-5.13 1.26-5.13 5.46v27.56c0 2.88 1.27 4.2 3.92 4.2 2.93 0 4.43-1.67 4.43-4.78V48.07h-4.66v-1.33h22.33v1.33zm36.32-5.24a11.27 11.27 0 015.64 10 10.19 10.19 0 01-4.49 8.52c-3.34 2.19-8.4 3.45-13.75 3.45s-10-1.26-13.47-3.62a9.69 9.69 0 01-4.55-8.46 11.3 11.3 0 015.82-9.9 27.37 27.37 0 0124.8.06zm-8.17 1.72c0-2.76-1-3.68-4.26-3.68s-4.37 1-4.37 3.86V60c0 2.65 1 3.57 4.14 3.57s4.49-1 4.49-3.57zM239.54 64v-1.14h2.19V46.11c0-2-.81-3-2.53-3-1.21 0-2.36.46-4.2 1.67v18.08h3.45V64h-20.72v-1.14h4.2V41.39h-4.2v-1.15h11.45a25.83 25.83 0 005.82-.75v3.86a18.45 18.45 0 0110.53-3.52c3 0 5.7.81 7.25 2.25 1.44 1.27 2 2.76 2 5.41v15.37H259V64zm43-2a15.23 15.23 0 01-8.4 2.7 14.87 14.87 0 01-8.8-3 11.29 11.29 0 01-4.66-9.61c0-7.31 5.12-12.32 12.66-12.32a25.69 25.69 0 019.2 1.85V26.77H277v-1.15h11.16a43.31 43.31 0 007.43-.75v38h4.2V64h-11.44a22.56 22.56 0 00-5.82.74zm0-19c-2.76-.75-3.22-.86-4.25-.86-2.42 0-3.63 1.09-3.63 3.11v14.27c0 1.72.75 2.59 2.36 2.59a12.86 12.86 0 005.52-1.67zm49.56-.17a11.29 11.29 0 015.64 10 10.19 10.19 0 01-4.49 8.52c-3.34 2.19-8.4 3.45-13.76 3.45s-10-1.26-13.46-3.62a9.67 9.67 0 01-4.55-8.46 11.32 11.32 0 015.81-9.9 27.39 27.39 0 0124.81.06zm-8.18 1.72c0-2.76-1-3.68-4.26-3.68s-4.37 1-4.37 3.86V60c0 2.65 1 3.57 4.15 3.57s4.48-1 4.48-3.57zM339.34 64v-1.14h4.2V26.77h-4.2v-1.15h11.39a23.79 23.79 0 005.87-.75v38h4.2V64zm60.31-4.49c-1.73 3.39-5.12 5.23-9.67 5.23a8.71 8.71 0 01-6.5-2.53 17.42 17.42 0 01-9.33 2.53c-6.44 0-11.22-2.93-11.22-6.84 0-2.42 1.73-4.66 4.67-5.93a19.3 19.3 0 017.82-1.27 25.85 25.85 0 017.77 1V46c0-2.24-.34-3.05-1.73-3.8a11.39 11.39 0 00-5.12-1 13.76 13.76 0 00-3.68.4c2.3.69 3.34 1.9 3.34 4.09 0 2.76-1.9 4.55-4.78 4.55s-5-1.85-5-4.49c0-3.8 4.15-5.88 11.74-5.88 5.53 0 10 .58 13 1.67 3.91 1.39 5.12 3 5.12 7.14v10.84c0 1.09.12 1.44.4 1.44.47 0 .75-.29 2-2zM383.19 53a18.31 18.31 0 00-4.6-.69c-2.42 0-3.34.69-3.34 2.47v5.35c0 1.5 1 2.31 2.88 2.31a15.35 15.35 0 005.06-1.16z"/></g></svg>