<svg version="1.0" xmlns="http://www.w3.org/2000/svg" width="933.333" height="933.333" viewBox="0 0 700 700"><path d="M187.9 173.5c-24.3 3.9-44.3 11.8-64.8 25.5-10.3 6.9-28.9 24.6-36.7 35C43.1 291.4 36.9 375.7 71 444.5c22 44.4 55.9 70.9 103 80.6 12.5 2.6 41.6 3.6 56 2 29.5-3.4 55.6-13.1 76.3-28.4 9.5-6.9 24.5-21.3 32.3-30.8l5.4-6.6V393h27v-15H198v15l22.3.2 22.2.3v39c-.1 41.5-.2 42.6-5.5 56.6-5.4 14.6-21.2 24.2-36 21.8-16.5-2.6-31.2-18.4-36.5-39.3-5.2-20.8-6.5-43.8-6.5-119.1 0-65 .6-80.7 3.6-98.5 4.9-28.7 18.6-50.1 38.7-60 8.2-4.1 9.3-4.4 19-4.8 16.6-.7 31.3 3.9 47.1 14.8 8.7 6 20.6 18.1 26.5 26.9 9 13.3 16.3 32.1 19.2 49.6l1.3 7.5H329V180h-14.5l-9.5 9.5c-5.2 5.2-9.8 9.5-10.2 9.5-.4 0-4.6-2.4-9.5-5.4-16.5-10-30.3-16-44.3-19.2-9.4-2.2-42-2.7-53.1-.9zm186.1 9.9c0 4.4-3.7 83.1-4.5 95.9l-.7 9.8 7.7-.3 7.8-.3 2.7-13.6c8.1-40.5 21.6-65.2 40.8-74.6 7.3-3.7 8-3.8 19.9-4.2l12.3-.3V504l-21.7.2-21.8.3v15h187v-15l-21.7-.3-21.8-.2V195.8l12.3.3c11.9.4 12.6.5 19.9 4.2 19.2 9.5 32.9 34.5 40.8 74.7l2.6 13.5 7.8.3 7.7.3-.6-9.3c-.7-11.3-4.5-92-4.5-96.6V180H374v3.4z"/></svg>